<?xml version="1.0" encoding="UTF-8" standalone="yes"?>
<svg width="600" height="600" viewBox="0 0 600 600" version="1.2" baseProfile="tiny-ps" xmlns="http://www.w3.org/2000/svg">
  <title>bimi-svg-tiny-12-ps</title>
  <rect width="600" height="600" fill="#f26722" stroke="#231f20"/>
  <path d="M157.53,119.38c13.57,3.93,20.36,8.31,20.36,13.13,2.92,14.97,4.38,29.56,4.38,43.76l-1.33,1.52v1.33l1.33,1.52v1.52l-5.71,39.39,1.33,1.33-2.85,16.17,1.52,8.75v2.85l-1.52,5.9,1.52,4.38h-1.52l1.52,1.33v3.04l-1.52,1.33,1.52,4.38c2.16,34,4.57,50.99,7.23,50.99,5.33-.89,12.11-13.51,20.36-37.86l46.62-103.51c12.18-25.24,24.86-37.86,38.05-37.86l7.23-1.52,13.13,4.38,1.52-1.52h1.33c10.78,5.58,16.17,16.81,16.17,33.68l1.33,17.51v11.61l1.52,5.9-2.85,20.36,1.33,7.23-2.85,29.3,1.52,1.33-3.04,27.78v8.75l-1.33,1.33,1.33,1.52-2.85,36.53,1.52,7.23h-1.52l1.52,4.38c3.81-1.65,5.71-3.62,5.71-5.9,5.33,0,8.75,1.97,10.28,5.9v2.85l-1.52,5.9,1.52,5.9-1.52,5.71,1.52,5.9c-5.84,28.16-12.18,42.24-19.03,42.24l-1.33,1.52h-3.04c-24.23-5.08-36.34-17.25-36.34-36.53l-1.52-18.84,1.52-1.52-3.04-29.11h1.52l-1.52-1.52,1.52-7.23,1.52-45.28h1.33l-1.33-1.52,2.85-15.98-1.52-1.33v-3.04l1.52-1.33-1.52-1.52v-1.52l1.52-1.33-1.52-1.52,1.52-7.23v-17.51l-1.52-5.9,1.52-5.9-1.52-4.38,1.52-4.38h-2.85l-24.93,59.94c-24.1,59.24-42.05,88.86-53.85,88.86l-4.38,2.85h-14.65c-21.31-9.13-34.44-20.8-39.39-35.01l-8.75-40.72,1.52-5.9-1.52-5.9,1.52-1.33-2.85-30.63,1.33-1.52v-1.33l-1.33-7.42h-1.52l-39.39,124.06c-2.66,11.04-5.58,18.33-8.75,21.88l1.52,4.38c-2.92,4.19-5.39,11.48-7.42,21.88-4.19,6.72-7.11,10.08-8.75,10.08l-1.33-1.33h-1.52l-1.52,1.33h-1.33c-14.59-3.93-21.88-6.85-21.88-8.75l-1.52-1.33v-1.52c.63-6.85,1.58-10.27,2.85-10.27l-1.33-1.33v-4.38l14.46-52.51c31.21-97.42,52.13-155.77,62.79-175.05,9.77-28.16,16.55-42.24,20.36-42.24l19.03-1.52Z" fill="#fff" stroke="#231f20" stroke-miterlimit="10" stroke-width="5"/>
  <path d="M430.38,128.32c32.22,8.12,48.33,16.55,48.33,25.31,7.23,8.25,11.67,16.74,13.32,25.5h-1.33l2.66,11.99-2.66,13.51,1.33,1.33v5.33c0,1.78-1.33,2.66-4,2.66v1.33c2.66,0,4,.89,4,2.66-1.27.13-5.71,11.73-13.32,34.82,13.57,2.92,26,9.58,37.29,19.98,24.23,19.79,38.5,39.45,42.81,58.98l-1.33,1.33v1.33l1.33,1.33c-1.14,16.49-8.25,32.98-21.31,49.47-22.2,23.21-39.58,36.6-52.13,40.15-5.58,6.21-13.19,9.32-22.83,9.32h-7.99l-4,2.66-7.99-2.66h-12.18l-2.66-2.66c0-2.28-2.22-3.62-6.66-4l-15.98-11.99,1.33-1.52-2.66-2.66,1.33-1.33h1.33c-6.22-6.85-9.32-11.29-9.32-13.32h1.33l5.33,4,1.33-1.33,28.16,2.66c16.11-3.17,35.71-15.22,58.79-36.15,13.32-14.33,19.98-24.1,19.98-29.3l1.33-1.33h1.33c0-18.14-13.83-35.58-41.48-52.33l-7.99-4h-1.33c-3.17,2.66-6.28,4-9.32,4h-9.32c-14.34-11.67-21.5-21.44-21.5-29.3,9.77-7.99,18.27-25.37,25.5-52.13h1.33l-1.33-1.33v-1.52l1.33-6.66-1.33-4,1.33-1.33v-1.33l-4-14.65,1.33-1.33-1.33-1.33h-2.66c-6.22,0-13.38,6.66-21.5,19.98,0,2.66-1.33,4-4,4v2.66l-4,29.49,1.33,4-1.33,4,2.66,4-1.33,9.51v26.64l-1.33,7.99,1.33,6.85v4l-1.33,1.33,2.66,9.32-2.66,2.66v1.33l1.33,6.66h-1.33l1.33,1.33v10.66l1.33,6.85h-1.33l1.33,1.33-1.33,6.66,1.33,4-1.33,1.33v1.33l2.66,9.32h-1.33l1.33,1.33v6.66h-2.66v2.66l1.33,6.85c-3.55.51-5.33,2.73-5.33,6.66l-6.66,2.66-1.33-1.33-2.66,2.66c-18.77-7.74-28.16-17.12-28.16-28.16v-6.66l1.33-1.33-2.66-7.99,1.33-10.84-1.33-13.32,1.33-1.33-2.66-17.31,1.33-4-2.66-2.66,1.33-1.33v-1.33l-1.33-1.52v-1.33l1.33-4-2.66-11.99,1.33-1.33v-1.33l-1.33-1.33v-1.33l1.33-1.33-1.33-6.66v-10.66l-1.33-12.18,2.66-14.65-1.33-4c1.78,0,3.11-2.66,4-7.99l-1.33-1.33v-1.33c1.65-3.3,2.98-13.13,4-29.49l32.16-34.82,9.32-6.66,14.65-4Z" fill="#fff" stroke="#231f20" stroke-miterlimit="10" stroke-width="5"/>
</svg>